<svg width="17" height="17" viewBox="0 0 17 17" fill="none" xmlns="http://www.w3.org/2000/svg">
<g clip-path="url(#clip0_1812_2)">
<path d="M12.4375 8.5C12.4373 7.76686 12.2324 7.04833 11.846 6.42532C11.4595 5.80232 10.9068 5.29959 10.25 4.97375V6.9075L12.3938 9.05125C12.42 8.87625 12.4375 8.6925 12.4375 8.5ZM14.625 8.5C14.625 9.3225 14.45 10.0925 14.1525 10.81L15.4737 12.1312C16.0683 11.0134 16.3778 9.76612 16.375 8.5C16.375 4.755 13.7588 1.6225 10.25 0.82625V2.62875C12.7788 3.38125 14.625 5.72625 14.625 8.5ZM1.73625 0.625L0.625 1.73625L4.76375 5.875H0.625V11.125H4.125L8.5 15.5V9.61125L12.2188 13.33C11.6325 13.785 10.9762 14.1438 10.25 14.3625V16.165C11.4341 15.8935 12.5392 15.3514 13.4788 14.5813L15.2637 16.375L16.375 15.2637L8.5 7.38875L1.73625 0.625ZM8.5 1.5L6.67125 3.32875L8.5 5.1575V1.5Z" fill="white"/>
</g>
<defs>
<clipPath id="clip0_1812_2">
<rect width="17" height="17" fill="white"/>
</clipPath>
</defs>
</svg>
