<svg width="17" height="17" viewBox="0 0 17 17" fill="none" xmlns="http://www.w3.org/2000/svg">
<g clip-path="url(#clip0_1812_4)">
<path d="M0.625 5.87492V11.1249H4.125L8.5 15.4999V1.49992L4.125 5.87492H0.625ZM12.4375 8.49992C12.4373 7.76678 12.2324 7.04825 11.846 6.42524C11.4595 5.80224 10.9068 5.29951 10.25 4.97367V12.0174C11.545 11.3787 12.4375 10.0487 12.4375 8.49992ZM10.25 0.826172V2.62867C12.7788 3.38117 14.625 5.72617 14.625 8.49992C14.625 11.2737 12.7788 13.6187 10.25 14.3712V16.1737C13.7588 15.3774 16.375 12.2449 16.375 8.49992C16.375 4.75492 13.7588 1.62242 10.25 0.826172Z" fill="white"/>
</g>
<defs>
<clipPath id="clip0_1812_4">
<rect width="17" height="17" fill="white"/>
</clipPath>
</defs>
</svg>
