<svg width="45" height="45" viewBox="0 0 45 45" fill="none" xmlns="http://www.w3.org/2000/svg">
<path fill-rule="evenodd" clip-rule="evenodd" d="M18 43C26.8366 43 34 35.8366 34 27C34 18.1634 26.8366 11 18 11C9.16344 11 2 18.1634 2 27C2 35.8366 9.16344 43 18 43ZM26.6494 19.2758L15.1166 32.5172L9.1722 28.1034L8.06875 28.734C8.06875 28.734 13.3846 35.857 13.8352 36.3005C14.2857 36.7439 14.4794 36.931 15.1166 36.931C15.7538 36.931 15.9474 36.7439 16.398 36.3005C16.8486 35.857 27.9308 19.9064 27.9308 19.9064L26.6494 19.2758Z" fill="#004F71"/>
</svg>
