<svg width="18" height="18" viewBox="0 0 18 18" fill="none" xmlns="http://www.w3.org/2000/svg">
<path d="M9 0.25C4.125 0.25 0.25 4.125 0.25 9C0.25 13.875 4.125 17.75 9 17.75C13.875 17.75 17.75 13.875 17.75 9C17.75 4.125 13.875 0.25 9 0.25ZM9 16.5C4.875 16.5 1.5 13.125 1.5 9C1.5 4.875 4.875 1.5 9 1.5C13.125 1.5 16.5 4.875 16.5 9C16.5 13.125 13.125 16.5 9 16.5Z" fill="white"/>
<path d="M12.375 13.375L9 10L5.625 13.375L4.625 12.375L8 9L4.625 5.625L5.625 4.625L9 8L12.375 4.625L13.375 5.625L10 9L13.375 12.375L12.375 13.375Z" fill="white"/>
</svg>
