<svg width="45" height="45" viewBox="0 0 45 45" fill="none" xmlns="http://www.w3.org/2000/svg">
<path fill-rule="evenodd" clip-rule="evenodd" d="M11.2549 16.625V11C11.2549 9.01088 12.0451 7.10322 13.4516 5.6967C14.8581 4.29018 16.7658 3.5 18.7549 3.5C20.744 3.5 22.6517 4.29018 24.0582 5.6967C25.4647 7.10322 26.2549 9.01088 26.2549 11V16.625H28.1299C29.1244 16.625 30.0783 17.0201 30.7815 17.7234C31.4848 18.4266 31.8799 19.3804 31.8799 20.375V35.75C31.8799 36.7446 31.4848 37.6984 30.7815 38.4016C30.0783 39.1049 29.1244 39.5 28.1299 39.5H9.37988C8.38532 39.5 7.43149 39.1049 6.72823 38.4016C6.02497 37.6984 5.62988 36.7446 5.62988 35.75V20.375C5.62988 18.3125 7.31738 16.625 9.37988 16.625H11.2549ZM15.0049 11C15.0049 10.0054 15.4 9.05161 16.1032 8.34835C16.8065 7.64509 17.7603 7.25 18.7549 7.25C19.7494 7.25 20.7033 7.64509 21.4065 8.34835C22.1098 9.05161 22.5049 10.0054 22.5049 11V16.625H15.0049V11Z" fill="#30607F"/>
</svg>
