<svg width="45" height="45" viewBox="0 0 45 45" fill="none" xmlns="http://www.w3.org/2000/svg">
<path fill-rule="evenodd" clip-rule="evenodd" d="M28.125 11C28.125 10.0054 28.5201 9.05161 29.2234 8.34835C29.9266 7.64509 30.8804 7.25 31.875 7.25C32.8696 7.25 33.8234 7.64509 34.5266 8.34835C35.2299 9.05161 35.625 10.0054 35.625 11V18.5C35.625 18.9973 35.8225 19.4742 36.1742 19.8258C36.5258 20.1775 37.0027 20.375 37.5 20.375C37.9973 20.375 38.4742 20.1775 38.8258 19.8258C39.1775 19.4742 39.375 18.9973 39.375 18.5V11C39.375 9.01088 38.5848 7.10322 37.1783 5.6967C35.7718 4.29018 33.8641 3.5 31.875 3.5C29.8859 3.5 27.9782 4.29018 26.5717 5.6967C25.1652 7.10322 24.375 9.01088 24.375 11V16.625H9.375C8.38044 16.625 7.42661 17.0201 6.72335 17.7233C6.02009 18.4266 5.625 19.3804 5.625 20.375V35.5C5.625 37.5625 7.3125 39.25 9.375 39.25H28.125C29.1196 39.25 30.0734 38.8549 30.7766 38.1516C31.4799 37.4484 31.875 36.4946 31.875 35.5V20.375C31.875 19.3804 31.4799 18.4266 30.7766 17.7233C30.0734 17.0201 29.1196 16.625 28.125 16.625V11Z" fill="#30607F"/>
</svg>
