<?xml version="1.0" encoding="utf-8"?>
<!-- Generator: Adobe Illustrator 16.0.0, SVG Export Plug-In . SVG Version: 6.00 Build 0)  -->
<!DOCTYPE svg PUBLIC "-//W3C//DTD SVG 1.1//EN" "http://www.w3.org/Graphics/SVG/1.1/DTD/svg11.dtd">
<svg version="1.1" id="Layer_1" xmlns="http://www.w3.org/2000/svg" xmlns:xlink="http://www.w3.org/1999/xlink" x="0px" y="0px"
	 width="126px" height="144px" viewBox="0 0 126 144" enable-background="new 0 0 126 144" xml:space="preserve">
<path fill="#fff" d="M108.881,0.551H0.483v16.651h102.986v0.016c2.979,0,5.369,2.409,5.369,5.367V78.53l-0.022,0.037
	c-0.019,2.95-2.429,5.33-5.386,5.33H22.519c-2.957,0-5.383-2.39-5.383-5.367V55.906c0-2.957,2.427-5.361,5.383-5.361h69.638v-16.64
	H17.094c-9.172,0-16.611,7.414-16.611,16.592v33.454c0,9.167,7.439,16.593,16.611,16.593h91.787c9.177,0,16.602-7.426,16.602-16.593
	V17.154C125.482,7.982,118.058,0.551,108.881,0.551"/>
<path fill="#fff" d="M19.62,117.363l6.365,19.045c0.756,2.322,1.292,2.86,2.619,2.86h1.292v3.348H15.995v-3.348h1.141
	c1.143,0,2.095-0.152,2.095-0.568c0-0.39-0.04-0.808-0.192-1.382l-0.796-2.736h-7.771l-0.464,1.524
	c-0.413,1.333-0.57,1.896-0.57,2.431c0,0.618,1.342,0.731,2.378,0.731h1.093v3.348H1.709v-3.348h1.3c1.333,0,1.857-0.538,2.628-2.86
	L12,117.363H19.62z M11.571,131.232h5.527l-2.738-8.202h-0.073L11.571,131.232z"/>
<path fill="#fff" d="M32.106,122.051c0-1.075-0.266-1.639-1.372-1.639h-1.748v-3.049h9.446v9.485c1.411-1.603,3.201-2.631,4.91-2.631
	c5.713,0,7.842,4.463,7.842,9.479c0,5.031-2.129,9.485-7.842,9.485c-2.399,0-4.53-0.83-5.863-2.928l-1.098,2.37h-4.275V122.051z
	 M38.433,133.697c0,3.895,0.874,6.214,3.006,6.214c2.146,0,3.007-2.319,3.007-6.214c0-3.877-0.861-6.201-3.007-6.201
	C39.307,127.496,38.433,129.82,38.433,133.697"/>
<path fill="#fff" d="M53.474,122.051c0-1.075-0.265-1.639-1.359-1.639h-1.757v-3.049h9.441v9.485c1.415-1.603,3.206-2.631,4.917-2.631
	c5.72,0,7.85,4.463,7.85,9.479c0,5.031-2.13,9.485-7.85,9.485c-2.398,0-4.533-0.83-5.865-2.928l-1.104,2.37h-4.272V122.051z
	 M59.799,133.697c0,3.895,0.885,6.214,3.015,6.214c2.134,0,3.008-2.319,3.008-6.214c0-3.877-0.874-6.201-3.008-6.201
	C60.685,127.496,59.799,129.82,59.799,133.697"/>
<path fill="#fff" d="M94.043,133.702c0,6.099-4.153,9.48-9.821,9.48c-5.687,0-9.832-3.382-9.832-9.48c0-6.098,4.146-9.484,9.832-9.484
	C89.89,124.218,94.043,127.604,94.043,133.702 M81.139,133.702c0,4.494,0.791,6.436,3.083,6.436c2.282,0,3.082-1.941,3.082-6.436
	c0-4.495-0.8-6.437-3.082-6.437C81.93,127.266,81.139,129.207,81.139,133.702"/>
<path fill="#fff" d="M121.204,134.008v2.972c0,1.749-0.379,2.788-1.826,2.788c-0.875,0-1.292-0.651-1.292-1.457v-10.473h4.68v-3.05h-4.68v-7.077
	h-3.776c-0.311,3.156-1.299,7.077-5.103,7.077h-5.942v-7.077h-3.766c-0.312,3.156-1.306,7.077-5.106,7.077v3.05h2.55v9.558
	c0,3.886,2.172,5.787,6.09,5.787c4.584,0,6.397-2.05,6.397-5.787v-3.388h-3.033v2.972c0,1.749-0.387,2.788-1.833,2.788
	c-0.883,0-1.299-0.651-1.299-1.457v-10.473h8.507v9.558c0,3.886,2.161,5.787,6.083,5.787c4.572,0,6.402-2.05,6.402-5.787v-3.388
	H121.204z"/>
</svg>
