<svg width="21" height="16" viewBox="0 0 21 16" fill="none" xmlns="http://www.w3.org/2000/svg">
<path d="M4.27778 0.5H0.611111C0.275 0.5 0 0.78125 0 1.125V14.875C0 15.2188 0.275 15.5 0.611111 15.5H4.27778C4.61389 15.5 4.88889 15.2188 4.88889 14.875V1.125C4.88889 0.78125 4.61389 0.5 4.27778 0.5ZM3.66667 4.25H1.22222V3H3.66667V4.25ZM10.3889 0.5H6.72222C6.38611 0.5 6.11111 0.78125 6.11111 1.125V14.875C6.11111 15.2188 6.38611 15.5 6.72222 15.5H10.3889C10.725 15.5 11 15.2188 11 14.875V1.125C11 0.78125 10.725 0.5 10.3889 0.5ZM9.77778 4.25H7.33333V3H9.77778V4.25Z" fill="white"/>
<path d="M14.6104 1.46626L11.3361 3.15376C11.1919 3.22875 11.0825 3.35894 11.0317 3.51603C10.9808 3.67311 10.9928 3.84436 11.0648 3.99251L16.5648 15.155C16.6381 15.3025 16.7654 15.4144 16.919 15.4664C17.0726 15.5184 17.24 15.5062 17.3849 15.4325L20.6592 13.745C20.8034 13.67 20.9129 13.5398 20.9637 13.3827C21.0145 13.2257 21.0026 13.0544 20.9306 12.9063L15.4306 1.74376C15.3572 1.59627 15.2299 1.48436 15.0763 1.43239C14.9228 1.38042 14.7553 1.3926 14.6104 1.46626V1.46626Z" fill="white"/>
</svg>
